<?xml version="1.0" encoding="UTF-8" standalone="no"?>
<!-- Uploaded to: SVG Repo, www.svgrepo.com, Generator: SVG Repo Mixer Tools -->

<svg
   width="800px"
   height="800px"
   viewBox="0 0 24 24"
   fill="none"
   version="1.1"
   id="svg3"
   sodipodi:docname="location_light.svg"
   inkscape:version="1.4 (86a8ad7, 2024-10-11)"
   xmlns:inkscape="http://www.inkscape.org/namespaces/inkscape"
   xmlns:sodipodi="http://sodipodi.sourceforge.net/DTD/sodipodi-0.dtd"
   xmlns="http://www.w3.org/2000/svg"
   xmlns:svg="http://www.w3.org/2000/svg">
  <defs
     id="defs3" />
  <sodipodi:namedview
     id="namedview3"
     pagecolor="#ffffff"
     bordercolor="#000000"
     borderopacity="0.25"
     inkscape:showpageshadow="2"
     inkscape:pageopacity="0.0"
     inkscape:pagecheckerboard="0"
     inkscape:deskcolor="#d1d1d1"
     inkscape:zoom="1.00875"
     inkscape:cx="400"
     inkscape:cy="400"
     inkscape:window-width="1920"
     inkscape:window-height="1009"
     inkscape:window-x="-8"
     inkscape:window-y="1072"
     inkscape:window-maximized="1"
     inkscape:current-layer="svg3" />
  <path
     fill-rule="evenodd"
     clip-rule="evenodd"
     d="m 8.0175112,11.999885 c 3.33e-4,-1.801872 1.2415978,-3.3525754 2.9647248,-3.7037864 1.723066,-0.3512177 3.448144,0.5948657 4.120206,2.2596674 0.671993,1.66481 0.103855,3.5847 -1.356959,4.585543 -1.460887,1.000843 -3.407654,0.80388 -4.6497377,-0.470381 C 8.405187,13.962441 8.0173308,13.00163 8.0175112,11.999885 Z"
     stroke="#000000"
     stroke-width="1.04067"
     stroke-linecap="round"
     stroke-linejoin="round"
     id="path1" />
  <path
     fill-rule="evenodd"
     clip-rule="evenodd"
     d="m 10.0708,11.999892 c 2.14e-4,-0.797182 0.549467,-1.483187 1.311767,-1.638512 0.762372,-0.155325 1.525531,0.263321 1.822845,0.999908 0.297242,0.736514 0.04583,1.58591 -0.6005,2.028621 -0.646412,0.442783 -1.507625,0.355616 -2.057129,-0.208212 -0.305528,-0.313429 -0.477098,-0.738592 -0.476983,-1.181805 z"
     stroke="#000000"
     stroke-width="1.07436"
     stroke-linecap="round"
     stroke-linejoin="round"
     id="path2" />
  <path
     d="m 15.908001,11.405414 c -0.32837,0 -0.594585,0.266216 -0.594585,0.594586 0,0.32837 0.266215,0.594586 0.594585,0.594586 z m 1.202728,1.189172 c 0.32837,0 0.594586,-0.266216 0.594586,-0.594586 0,-0.32837 -0.266216,-0.594586 -0.594586,-0.594586 z M 6.2892703,11.405414 c -0.3283778,0 -0.5945856,0.266216 -0.5945856,0.594586 0,0.32837 0.2662078,0.594586 0.5945856,0.594586 z m 1.2027279,1.189172 c 0.3283778,0 0.5945857,-0.266216 0.5945857,-0.594586 0,-0.32837 -0.2662079,-0.594586 -0.5945857,-0.594586 z M 11.105414,7.6841007 c 0,0.3283778 0.266216,0.5945858 0.594586,0.5945858 0.32837,0 0.594586,-0.266208 0.594586,-0.5945858 z m 1.189172,-1.233567 C 12.294586,6.1221558 12.02837,5.855948 11.7,5.855948 c -0.32837,0 -0.594586,0.2662078 -0.594586,0.5945857 z M 11.105414,17.549467 c 0,0.328369 0.266216,0.594585 0.594586,0.594585 0.32837,0 0.594586,-0.266216 0.594586,-0.594585 z m 1.189172,-1.233568 c 0,-0.32837 -0.266216,-0.594586 -0.594586,-0.594586 -0.32837,0 -0.594586,0.266216 -0.594586,0.594586 z m 3.613415,-3.721313 h 1.202728 v -1.189172 h -1.202728 z m -9.6187307,0 H 7.4919982 V 11.405414 H 6.2892703 Z M 12.294586,7.6841007 v -1.233567 h -1.189172 v 1.233567 z m 0,9.8653663 v -1.233568 h -1.189172 v 1.233568 z"
     fill="#000000"
     id="path3"
     style="stroke-width:0.792781" />
</svg>
