<?xml version="1.0" encoding="UTF-8" standalone="no"?>
<svg
   class="img-fluid"
   id="outputsvg"
   width="800"
   height="800"
   viewBox="0 0 7999.9998 8000"
   version="1.1"
   sodipodi:docname="no_connection.svg"
   inkscape:version="1.4 (86a8ad7, 2024-10-11)"
   inkscape:export-filename="appiconfg.png"
   inkscape:export-xdpi="96"
   inkscape:export-ydpi="96"
   xml:space="preserve"
   xmlns:inkscape="http://www.inkscape.org/namespaces/inkscape"
   xmlns:sodipodi="http://sodipodi.sourceforge.net/DTD/sodipodi-0.dtd"
   xmlns="http://www.w3.org/2000/svg"
   xmlns:svg="http://www.w3.org/2000/svg"><defs
     id="defs13"><rect
       x="490"
       y="124"
       width="59.293939"
       height="133.97911"
       id="rect10" /><rect
       x="-460"
       y="-382"
       width="2"
       height="24"
       id="rect8" /><rect
       x="490"
       y="158"
       width="204"
       height="126"
       id="rect7" /></defs><sodipodi:namedview
     id="namedview13"
     pagecolor="#939393"
     bordercolor="#000000"
     borderopacity="0.25"
     inkscape:showpageshadow="2"
     inkscape:pageopacity="0.0"
     inkscape:pagecheckerboard="0"
     inkscape:deskcolor="#d1d1d1"
     inkscape:zoom="0.5"
     inkscape:cx="199"
     inkscape:cy="347"
     inkscape:window-width="1920"
     inkscape:window-height="1009"
     inkscape:window-x="-8"
     inkscape:window-y="1072"
     inkscape:window-maximized="1"
     inkscape:current-layer="outputsvg" /><path
     id="path24-5"
     style="fill:#ff0000;stroke-width:2.50599"
     d="m 3802.276,5041.1087 c -164.3124,0 -910.8473,19.9778 -1015.3234,26.6263 -94.978,6.6484 -94.9644,6.6066 -92.1152,46.4982 6.6489,86.43 -59.831,152.9297 -173.8052,172.8752 -134.8689,22.795 -896.5971,17.1079 -989.676,-7.5867 -20.8951,-5.6984 -55.0884,-21.8461 -75.0334,-35.1427 -37.0414,-25.6439 -37.0492,-25.6607 -201.3612,-13.3132 -233.6468,16.1459 -214.6443,6.6487 -218.4434,114.9239 -1.8998,49.3886 3.7863,139.6051 12.3343,202.2912 7.6899,54.8319 29.831,157.399 54.5251,265.2842 v 10.2294 c 0,32.9713 8.4753,63.8623 23.3469,90.6962 39.9498,166.0095 81.4462,320.8936 92.1641,329.0597 8.5483,5.6986 48.4356,16.1115 89.2765,22.7596 113.9738,18.0464 306.7906,56.0497 341.9327,67.4467 27.5438,9.498 38.9176,32.3042 15.1729,32.3042 -13.2966,0 -188.0643,-24.7124 -316.285,-43.7082 -65.5354,-9.4978 -120.6106,-16.1137 -122.5103,-13.2643 -5.6985,5.6986 35.1467,136.7532 56.0425,176.6441 36.0914,71.2338 89.2764,93.0683 279.2332,117.7625 222.2488,28.4939 743.678,56.0681 1353.4385,71.2645 460.6444,11.3977 1924.2577,2.8038 2507.4241,-14.2922 624.0073,-18.0463 904.1743,-37.9807 1115.0253,-77.8721 141.518,-26.594 144.369,-30.3835 220.352,-267.8293 2.849,-10.4474 -3.781,-11.3857 -31.325,-7.5863 -71.234,11.397 -410.304,54.1334 -429.3,54.1334 -28.493,0 -24.687,-18.0675 6.657,-29.4652 27.543,-11.3969 147.209,-34.1655 333.367,-64.5588 64.585,-10.4477 123.468,-24.6764 129.167,-31.325 15.196,-17.0961 142.474,-519.5692 166.218,-657.288 25.644,-149.1161 35.137,-313.424 18.991,-323.8716 -6.649,-3.7991 -97.844,-14.2411 -203.27,-23.7386 -184.258,-15.1964 -191.83,-15.1869 -219.374,1.9089 -103.526,62.6854 -139.657,66.4973 -612.6492,67.4467 -350.4702,0 -412.185,-1.9251 -465.3728,-15.2219 -70.2839,-18.9958 -99.7329,-37.0107 -131.0758,-83.5498 -18.9958,-26.5944 -21.8112,-40.8688 -18.0118,-80.7599 4.7485,-49.3886 4.6944,-49.4139 -95.9821,-55.1125 -103.5267,-6.6483 -853.8299,-24.6686 -1019.0923,-24.6686 -85.4801,0 -92.1138,0.9249 -96.8629,19.9208 -3.7995,14.2466 -10.4518,19.0407 -20.8998,14.2921 -8.5478,-2.8496 -54.1216,-5.7267 -101.6104,-5.7267 -75.0333,0 -84.5507,-1.8961 -74.1033,-14.2432 10.4479,-12.3473 -0.9562,-14.243 -91.1856,-14.243 z m 209.8779,58.8813 c 101.626,2.8499 113.9837,4.7732 116.8327,19.9698 4.7491,22.7952 -21.8286,51.2599 -66.4678,74.0545 -81.6815,41.7902 -226.0716,4.7729 -214.6745,-55.0637 5.699,-32.2926 44.6369,-40.8598 164.3096,-38.9606 z m 12.5301,32.2551 c -50.0863,-0.3115 -126.4926,6.4567 -135.0404,14.2919 -5.6984,4.7492 4.7435,14.2607 23.7387,22.8086 43.69,19.9456 125.3814,14.2196 151.9753,-10.4743 19.9453,-18.0458 19.9559,-18.0394 -2.8388,-23.7383 -7.3608,-1.8997 -21.1394,-2.7839 -37.8348,-2.8879 z m 401.8418,721.1616 c 188.517,0.6676 354.7332,2.1284 473.6934,4.5029 579.3676,11.3973 625.9309,18.0601 674.37,97.8419 16.6086,26.9175 20.1463,48.7619 12.0894,76.0121 -2.3385,3.0769 -4.4053,5.7272 -7.4395,9.985 -20.3603,28.5691 -86.1161,99.9109 -222.1142,153.4928 -162.2461,63.9238 -397.0451,108.6588 -397.0451,108.6588 0.5501,1.1003 1.1123,2.0071 1.6639,3.0833 -16.8366,-1.3289 -43.7216,0.938 -96.6671,5.8737 -873.7999,80.7317 -1783.6924,47.5096 -2188.3002,-80.7109 -68.3842,-21.8449 -86.4243,-32.302 -138.6622,-81.69 -32.2923,-32.293 -68.4033,-75.9773 -78.8509,-98.7718 -18.0458,-36.092 -18.9547,-42.751 -6.6076,-72.1944 17.0961,-39.8909 48.4237,-68.3811 96.8628,-89.2763 29.4433,-12.3471 85.4653,-17.1105 251.6773,-22.8088 293.4828,-10.685 1059.7786,-16.002 1625.33,-13.9983 z m 1643.8312,602.8606 c 84.531,0 94.008,1.9226 120.602,24.7172 33.242,27.5437 38.007,56.0298 13.313,68.3768 -9.498,4.7494 -83.578,11.4227 -164.31,15.2221 -80.7314,3.7987 -188.0459,10.4241 -237.4342,15.1731 -49.3889,5.6988 -107.3417,11.4133 -128.237,13.3132 -43.6899,3.7989 -82.6182,-4.7735 -87.3674,-19.97 -6.6483,-18.0454 44.6177,-67.423 85.4586,-82.6197 43.6899,-16.1467 255.5072,-34.2127 397.975,-34.2127 z m -4186.9854,2.3983 c 23.7444,-0.2543 53.5365,0.6876 91.5278,2.3493 203.2535,9.4979 272.5658,19.9826 315.3063,47.5259 40.8405,27.5441 48.4538,63.6152 18.0611,80.7111 -10.4476,4.7492 -21.8289,8.5653 -26.5776,8.5653 -76.9328,-11.397 -246.0021,-27.5548 -351.4279,-32.3039 -156.7144,-8.5483 -177.609,-16.1412 -154.8144,-58.8813 19.9459,-35.6167 36.691,-47.2095 107.9247,-47.9664 z M 3663.4231,2940.8907 c -427.3134,3.7844 -705.8446,20.5503 -943.7652,55.4552 -36.0914,4.7487 -100.6895,13.2631 -142.4801,18.0119 -108.2755,11.3976 -177.5874,26.6375 -280.1636,58.9302 -84.5306,26.594 -94.0386,32.2495 -151.9754,91.1364 -56.0373,56.9868 -68.4216,77.8894 -122.5594,201.3614 -33.2421,75.9827 -77.8471,173.8436 -97.7928,216.5835 -19.9457,43.6903 -36.1219,81.67 -36.1219,82.6198 0,24.6944 -247.8846,518.5552 -263.0813,524.2542 -24.6946,9.4977 -45.5573,-11.3558 -48.407,-46.498 -1.899,-18.9952 5.6848,-70.2839 17.082,-114.9238 18.996,-80.7317 18.9865,-80.7397 -1.9091,-121.5803 -14.2467,-25.644 -30.3716,-43.7271 -45.568,-47.5262 -37.0415,-10.448 -216.5756,-9.4692 -284.9602,0.9788 -74.0832,11.3976 -194.7171,69.3463 -222.2611,107.3375 -29.443,38.9415 -27.5342,120.5837 1.9088,151.9265 26.5943,27.5438 144.3917,75.9954 249.8174,102.5897 40.8408,10.4474 85.4751,22.807 98.7718,27.5562 33.2424,12.3469 30.4048,41.7925 -7.5866,65.5378 -49.3886,30.3928 -81.6848,76.9318 -215.6044,309.6287 -43.6894,75.0329 -102.5868,193.7479 -112.085,223.1909 -16.1459,47.4889 -28.5234,149.0921 -36.1215,284.9112 -2.8494,65.535 -7.596,127.2847 -9.4956,137.7323 -7.5981,34.1922 -21.80869,188.0829 -27.50739,284.9604 -2.8493,52.2381 -7.6247,116.7868 -10.4741,142.4308 -14.2467,161.4631 -24.6694,575.6007 -19.921,835.841 4.7494,332.4239 10.4122,365.6318 62.65009,402.6735 45.5898,31.3428 151.9707,41.8297 400.814,38.0307 226.9983,-3.7992 233.6444,-4.742 279.2335,-28.4864 56.0373,-27.5439 66.5226,-52.2609 82.6689,-179.5317 4.7488,-44.6399 14.222,-86.4454 19.9207,-93.094 7.5982,-9.4981 23.7591,-11.3858 57.9513,-7.5866 56.9871,6.6484 305.8299,21.8473 499.5858,30.3951 152.9147,6.6488 161.4339,7.6042 498.6068,56.0426 380.863,55.0876 553.7456,65.5379 1063.7795,65.5379 434.0503,0 671.5089,-11.406 911.804,-41.7994 37.0415,-4.7489 119.6746,-16.1405 185.2092,-23.7385 65.5351,-8.5482 166.2037,-22.8063 223.191,-32.304 59.8362,-10.4473 161.4715,-18.0408 236.5043,-18.9908 73.1332,-0.9499 134.8631,-3.7785 138.6623,-5.6777 2.8492,-1.8997 88.3298,-6.6463 189.957,-9.4954 101.6263,-3.7994 188.0382,-8.5747 190.8872,-10.4744 11.398,-6.6484 161.479,-5.6987 168.127,0 3.8,3.7989 9.486,49.3927 12.335,100.6808 11.398,168.1116 33.253,187.0855 227.009,200.3823 131.07,8.548 419.775,2.8723 498.606,-10.4251 70.284,-11.3971 97.844,-30.3994 128.237,-91.1855 23.745,-46.5391 23.758,-46.5418 22.809,-450.1998 -0.95,-381.8125 -18.985,-795.9309 -42.729,-986.8372 -12.347,-107.3255 -16.16,-144.3238 -22.809,-285.8413 -10.447,-217.5004 -20.919,-279.2619 -59.86,-359.9933 -28.493,-58.8865 -96.85,-185.1867 -149.088,-275.4156 -37.991,-65.5351 -92.154,-136.7816 -134.893,-177.623 -27.544,-26.5936 -50.316,-53.2024 -50.316,-57.9513 0,-16.1465 87.363,-50.3421 256.425,-100.6807 109.225,-33.2421 151.009,-80.7393 138.662,-161.471 -6.648,-44.6394 -36.077,-92.1151 -56.973,-92.1151 -5.698,0 -18.049,-7.6133 -25.647,-18.0611 -36.092,-40.8403 -282.087,-80.7141 -415.057,-66.4678 -84.531,9.4983 -111.131,24.695 -126.328,75.0334 -9.497,32.2925 -8.521,44.6249 10.474,96.863 28.494,79.7822 35.119,154.8517 15.173,162.4498 -23.744,9.4977 -50.32,-27.5435 -111.106,-154.8145 -30.393,-65.5354 -72.17,-152.914 -92.115,-194.7047 -89.28,-185.2075 -115.903,-243.1783 -115.903,-251.7262 0,-4.7486 -13.27,-33.2068 -29.416,-62.6501 -15.196,-29.443 -35.16,-73.1478 -43.7082,-97.842 -43.6899,-131.07 -109.2454,-230.8108 -189.027,-292.5464 -57.9372,-43.6903 -215.5635,-86.4406 -416.9171,-112.0851 -56.9873,-7.5982 -138.6713,-18.04 -180.4616,-23.7387 -223.1991,-28.4935 -495.8096,-39.8892 -1063.7795,-44.638 -179.5089,-1.4249 -338.4508,-1.604 -480.8885,-0.3428 z m 207.2347,192.2577 c 23.8466,0.2407 39.6604,1.1277 45.7152,2.7897 25.6439,6.6485 28.4751,12.3639 31.3249,48.4561 4.7485,60.7858 -3.8073,65.5073 -121.5803,69.3067 -56.0373,0.9498 -105.3893,4.7859 -107.2883,7.6355 -2.8493,2.8493 -7.6049,23.7326 -11.4043,47.4769 -10.4476,74.0834 -0.028,79.7605 149.0877,85.4588 69.3344,2.8496 211.8088,2.8496 316.2851,0 189.0067,-4.7486 189.0234,-4.7218 203.2704,-29.4163 11.3977,-20.8952 12.3367,-32.2861 2.8387,-63.6288 -14.2463,-46.5393 -25.6567,-49.3862 -182.3704,-49.3862 -61.7362,0 -118.7099,-2.8771 -127.2582,-5.7264 -23.7446,-9.498 -20.8963,-84.495 4.7478,-102.5408 24.694,-17.0964 170.9792,-13.3004 658.2177,14.2432 520.4813,29.4431 861.4572,70.2749 945.038,113.015 71.2336,36.092 67.4006,28.5013 362.7832,661.0566 31.343,66.4851 34.228,93.9921 12.383,102.5406 -17.096,6.6484 -27.577,5.7288 -96.9118,-3.7688 -27.5435,-3.7995 -123.4658,-12.3423 -213.6956,-18.9907 -89.2797,-6.6482 -166.2172,-13.3024 -170.966,-16.152 -3.7992,-1.8995 -21.8158,-33.2543 -38.9118,-67.4469 -87.3802,-172.8601 -286.8351,-259.2712 -534.7286,-230.7776 -147.2165,17.0961 -217.5108,58.8635 -341.9324,205.1303 -30.3929,35.1414 -32.3117,35.1635 -78.8512,29.4651 -25.644,-3.7994 -307.6869,-6.6565 -625.8648,-6.6565 -578.4173,0.9496 -578.4595,0.9392 -603.1541,-37.0518 -14.2462,-20.8953 -32.2529,-47.5041 -41.7506,-57.9513 -27.5435,-34.1926 -123.4721,-92.1289 -189.9571,-114.924 -56.0371,-18.9955 -80.7498,-21.8495 -198.5224,-20.8996 -168.1116,1.8995 -239.3593,20.9315 -327.6895,87.4165 -51.2881,38.9414 -79.7488,71.1946 -168.0788,191.8172 -16.1462,21.8448 -21.851,22.8153 -206.1088,34.2127 -252.6423,16.1462 -269.7661,16.1462 -275.4648,0 -4.7486,-12.3471 132.9834,-321.9979 252.6561,-568.9413 89.2797,-184.2577 131.0661,-201.3506 593.6099,-244.0908 357.356,-32.4109 917.6059,-63.3463 1084.5321,-61.6711 z M 1836.2912,4868.0181 c 15.6295,-0.2904 31.6213,-0.2644 48.0153,0.048 37.4721,0.7162 76.9367,3.0325 118.2522,6.9504 319.1272,31.3423 574.6427,112.0525 634.4792,200.3823 29.4432,43.69 23.6991,95.9236 -14.2918,133.9146 -51.2888,51.2882 -103.4928,57.9411 -477.7073,60.7903 -185.2075,1.8993 -397.0073,-0.9489 -469.1907,-4.7476 -164.3127,-10.4479 -207.0887,-27.5583 -242.2307,-97.8419 -19.9452,-40.8407 -20.873,-48.4057 -10.4254,-93.0454 31.1646,-130.113 178.6563,-202.0945 413.0992,-206.4515 z m 4264.5638,4.1605 c 155.765,-0.9497 176.688,0.9051 235.574,20.8507 106.377,37.0412 174.75,101.6579 197.544,186.1884 20.896,78.8321 -21.834,142.4333 -117.762,172.8261 -41.791,13.2969 -109.225,16.161 -424.5531,18.0608 -206.1027,1.8994 -412.2259,0 -458.7651,-4.7477 -133.9191,-13.2967 -196.6136,-55.1028 -196.6136,-132.9846 0,-47.4892 25.6517,-84.4993 86.4376,-123.4403 132.0203,-84.5308 385.6058,-136.7534 678.1382,-136.7534 z m -2299.4059,174.7349 c 90.2294,0 101.6334,1.8958 91.1854,14.2431 -10.4472,12.3472 -0.9299,14.2432 74.1032,14.2432 47.4889,0 93.0629,2.8772 101.6107,5.7267 10.4479,4.7486 17.1004,-0.045 20.8997,-14.2922 4.7491,-18.9958 11.3828,-19.9208 96.8628,-19.9208 165.2626,0 915.5656,18.0202 1019.0925,24.6688 100.6765,5.6986 100.7305,5.7238 95.9818,55.1124 -3.7992,39.8912 -0.9838,54.1655 18.012,80.7598 31.3429,46.5393 60.7919,64.5541 131.0758,83.5499 53.1876,13.2969 114.9027,15.2221 465.3729,15.2221 472.9921,-0.9495 509.1231,-4.7615 612.6491,-67.447 27.544,-17.0958 35.116,-17.1052 219.374,-1.9087 105.426,9.4975 196.621,19.9394 203.27,23.7386 16.146,10.4474 6.653,174.7555 -18.991,323.8715 -23.744,137.7187 -151.022,640.1919 -166.218,657.2879 -5.699,6.6487 -64.582,20.8776 -129.167,31.325 -186.157,30.3934 -305.824,53.1619 -333.368,64.5591 -31.343,11.3974 -35.149,29.4649 -6.656,29.4649 18.996,0 358.067,-42.7362 429.3,-54.1334 27.544,-3.7993 34.174,-2.861 31.325,7.5866 -75.983,237.4456 -78.834,241.2351 -220.352,267.8291 -210.851,39.8913 -491.018,59.8259 -1115.0251,77.8721 -583.1667,17.096 -2046.7799,25.6898 -2507.4241,14.2923 -609.7606,-15.1963 -1131.1898,-42.7708 -1353.4386,-71.2645 -189.957,-24.6942 -243.1418,-46.5287 -279.2334,-117.7628 -20.8957,-39.8907 -61.7409,-170.9452 -56.0425,-176.6439 1.8999,-2.8493 56.9751,3.7665 122.5103,13.2642 128.2208,18.9959 302.9886,43.7083 316.2852,43.7083 23.7447,0 12.3709,-22.8061 -15.1729,-32.3041 -35.1423,-11.3971 -227.959,-49.4005 -341.9328,-67.4467 -40.8408,-6.6482 -80.7282,-17.0611 -89.2763,-22.7597 -10.7181,-8.1662 -52.2145,-163.0502 -92.1641,-329.0598 -14.8717,-26.8338 -23.347,-57.7247 -23.347,-90.696 V 5819.37 c -24.6943,-107.8853 -46.8353,-210.4523 -54.5252,-265.2842 -8.5479,-62.6859 -14.2341,-152.9026 -12.3342,-202.2912 3.799,-108.2752 -15.2035,-98.778 218.4433,-114.9238 164.312,-12.3474 164.3197,-12.331 201.3613,13.3131 19.945,13.2965 54.1381,29.4443 75.0332,35.1426 93.0791,24.6948 854.8073,30.3818 989.6762,7.5868 113.9741,-19.9455 180.4538,-86.4452 173.8052,-172.8753 -2.8494,-39.8916 -2.8628,-39.8497 92.1152,-46.4982 104.4761,-6.6485 851.0109,-26.6263 1015.3234,-26.6263 z m 209.8778,58.8813 c -119.6727,-1.8993 -158.6105,6.6681 -164.3097,38.9607 -11.3971,59.8366 132.9932,96.8537 214.6746,55.0637 44.6391,-22.7947 71.217,-51.2594 66.4678,-74.0544 -2.8491,-15.1968 -15.2067,-17.1201 -116.8327,-19.97 z m 12.5301,32.2551 c 16.6954,0.1023 30.474,0.9885 37.8348,2.888 22.7947,5.6989 22.7843,5.6926 2.8389,23.7384 -26.594,24.6939 -108.2856,30.4199 -151.9754,10.4743 -18.9953,-8.548 -29.4371,-18.0596 -23.7386,-22.8086 8.5476,-7.8355 84.9539,-14.6036 135.0403,-14.2921 z M 6069.53,6462.0723 c -142.4677,0 -354.285,18.066 -397.9751,34.2127 -40.8407,15.1966 -92.1069,64.5741 -85.4583,82.6197 4.749,15.1963 43.6773,23.7688 87.3672,19.9698 20.8953,-1.8998 78.848,-7.6142 128.237,-13.3133 49.3884,-4.7488 156.7028,-11.3742 237.4342,-15.1729 80.732,-3.7994 154.812,-10.4727 164.31,-15.222 24.694,-12.3471 19.929,-40.8331 -13.313,-68.3769 -26.594,-22.7945 -36.071,-24.7171 -120.602,-24.7171 z m -4186.9853,2.3981 c -71.2338,0.7571 -87.979,12.3499 -107.9247,47.9665 -22.7946,42.7401 -1.9001,50.3331 154.8142,58.8814 105.4258,4.749 274.4952,20.9067 351.4281,32.3038 4.7486,0 16.1299,-3.8161 26.5774,-8.5652 30.3927,-17.096 22.7796,-53.1671 -18.061,-80.7112 -42.7405,-27.5432 -112.0527,-38.0278 -315.3062,-47.5259 -37.9913,-1.6617 -67.7835,-2.6035 -91.5278,-2.3494 z" /><path
     style="font-size:96px;font-family:'Cascadia Mono';-inkscape-font-specification:'Cascadia Mono';white-space:pre;fill:#ff0000;stroke-width:4004.07;stroke-linecap:square;paint-order:markers fill stroke"
     d="M 7008.0008,2428.1661 6994.0592,164.98342 h 483.308 l -23.236,2263.18268 z m 227.7124,1106.0318 q -141.7396,0 -243.9779,-99.9149 -99.9144,-102.2382 -99.9144,-243.9773 0,-144.063 99.9144,-243.9779 102.2383,-99.9144 243.9779,-99.9144 144.0629,0 243.9773,99.9144 99.9149,99.9149 99.9149,243.9779 0,141.7391 -99.9149,243.9773 -99.9144,99.9149 -243.9773,99.9149 z"
     id="text10"
     aria-label="!" /></svg>
